<svg xmlns="http://www.w3.org/2000/svg" viewBox="0 0 32 32">
  <defs>
    <linearGradient id="g" x1="0%" y1="0%" x2="100%" y2="100%">
      <stop offset="0%" stop-color="#2E7D32"/>
      <stop offset="100%" stop-color="#66BB6A"/>
    </linearGradient>
  </defs>
  <circle cx="16" cy="16" r="15" fill="url(#g)"/>
  <path d="M16 6C12 10 9 14 9 18c0 4 3 7 7 7s7-3 7-7c0-1.5-.5-3-1.5-4.5C19 11 16 6 16 6z" fill="#fff" opacity="0.9"/>
  <path d="M16 12c-2 3-3.5 5.5-3.5 7.5 0 2 1.5 3.5 3.5 3.5s3.5-1.5 3.5-3.5c0-2-1.5-4.5-3.5-7.5z" fill="#A5D6A7"/>
</svg>
